<?xml version="1.0" encoding="UTF-8" standalone="no"?>
<!-- Created with Inkscape (http://www.inkscape.org/) -->
<svg
   xmlns:dc="http://purl.org/dc/elements/1.1/"
   xmlns:cc="http://web.resource.org/cc/"
   xmlns:rdf="http://www.w3.org/1999/02/22-rdf-syntax-ns#"
   xmlns:svg="http://www.w3.org/2000/svg"
   xmlns="http://www.w3.org/2000/svg"
   xmlns:sodipodi="http://inkscape.sourceforge.net/DTD/sodipodi-0.dtd"
   xmlns:inkscape="http://www.inkscape.org/namespaces/inkscape"
   width="1024"
   height="256"
   id="svg2"
   sodipodi:version="0.32"
   inkscape:version="0.43"
   version="1.0"
   sodipodi:docbase="/home/nili/proj/grt/data"
   sodipodi:docname="bomb.svg"
   inkscape:export-filename="/home/nili/proj/grt/data/bomb.png"
   inkscape:export-xdpi="90"
   inkscape:export-ydpi="90">
  <defs
     id="defs4" />
  <sodipodi:namedview
     id="base"
     pagecolor="#ffffff"
     bordercolor="#666666"
     borderopacity="1.0"
     inkscape:pageopacity="0.0"
     inkscape:pageshadow="2"
     inkscape:zoom="1.0722656"
     inkscape:cx="512"
     inkscape:cy="128"
     inkscape:document-units="px"
     inkscape:current-layer="layer1"
     inkscape:window-width="1192"
     inkscape:window-height="1546"
     inkscape:window-x="0"
     inkscape:window-y="0"
     showgrid="true"
     inkscape:grid-bbox="true"
     inkscape:grid-points="true"
     gridspacingx="64px"
     gridspacingy="64px"
     gridtolerance="32px" />
  <metadata
     id="metadata7">
    <rdf:RDF>
      <cc:Work
         rdf:about="">
        <dc:format>image/svg+xml</dc:format>
        <dc:type
           rdf:resource="http://purl.org/dc/dcmitype/StillImage" />
      </cc:Work>
    </rdf:RDF>
  </metadata>
  <g
     inkscape:label="Layer 1"
     inkscape:groupmode="layer"
     id="layer1">
    <g
       id="g2645"
       style="stroke:#ff3f3f;stroke-opacity:1"
       transform="matrix(3.860424,0,0,3.780855,4.585846,6.816143)">
      <path
         transform="matrix(1.748521,0,0,1.739793,4.338625,4.43251)"
         d="M 31.591986 15.737705 A 15.795993 15.737705 0 1 1  0,15.737705 A 15.795993 15.737705 0 1 1  31.591986 15.737705 z"
         sodipodi:ry="15.737705"
         sodipodi:rx="15.795993"
         sodipodi:cy="15.737705"
         sodipodi:cx="15.795993"
         id="path1325"
         style="fill:none;fill-opacity:0.75;fill-rule:evenodd;stroke:#ff3f3f;stroke-width:5.07078838;stroke-linecap:butt;stroke-linejoin:miter;stroke-miterlimit:4;stroke-dasharray:none;stroke-opacity:1"
         sodipodi:type="arc" />
      <path
         transform="matrix(1.793962,0,0,1.675983,33.32813,31.14092)"
         d="M 8,6 L 1.4727124,4.7781919 L -3.2342032,9.4625541 L -4.0892374,2.8771752 L -9.9988475,-0.15181996 L -4.0000001,-2.9999998 L -2.9454244,-9.556384 L 1.6171014,-4.7312771 L 8.1784751,-5.7543502 L 4.9994237,0.075909776 L 8,6 z "
         inkscape:randomized="0"
         inkscape:rounded="0"
         inkscape:flatsided="false"
         sodipodi:arg2="1.2718196"
         sodipodi:arg1="0.64350111"
         sodipodi:r2="5"
         sodipodi:r1="10"
         sodipodi:cy="0"
         sodipodi:cx="0"
         sodipodi:sides="5"
         id="path2200"
         style="fill:none;stroke:#ff3f3f;stroke-width:5;stroke-linecap:round;stroke-linejoin:miter;stroke-miterlimit:4;stroke-dasharray:none;stroke-opacity:1"
         sodipodi:type="star" />
    </g>
    <g
       transform="matrix(3.984956,0.298116,-0.298116,3.984956,266.0274,-9.214573)"
       style="stroke:#ff3f3f;stroke-opacity:1"
       id="g4401">
      <path
         sodipodi:type="arc"
         style="fill:none;fill-opacity:0.75;fill-rule:evenodd;stroke:#ff3f3f;stroke-width:5.07078838;stroke-linecap:butt;stroke-linejoin:miter;stroke-miterlimit:4;stroke-dasharray:none;stroke-opacity:1"
         id="path4403"
         sodipodi:cx="15.795993"
         sodipodi:cy="15.737705"
         sodipodi:rx="15.795993"
         sodipodi:ry="15.737705"
         d="M 31.591986 15.737705 A 15.795993 15.737705 0 1 1  0,15.737705 A 15.795993 15.737705 0 1 1  31.591986 15.737705 z"
         transform="matrix(1.748521,0,0,1.739793,4.338625,4.43251)" />
      <path
         sodipodi:type="star"
         style="fill:none;stroke:#ff3f3f;stroke-width:5;stroke-linecap:round;stroke-linejoin:miter;stroke-miterlimit:4;stroke-dasharray:none;stroke-opacity:1"
         id="path4405"
         sodipodi:sides="5"
         sodipodi:cx="0"
         sodipodi:cy="0"
         sodipodi:r1="10"
         sodipodi:r2="5"
         sodipodi:arg1="0.64350111"
         sodipodi:arg2="1.2718196"
         inkscape:flatsided="false"
         inkscape:rounded="0"
         inkscape:randomized="0"
         d="M 8,6 L 1.4727124,4.7781919 L -3.2342032,9.4625541 L -4.0892374,2.8771752 L -9.9988475,-0.15181996 L -4.0000001,-2.9999998 L -2.9454244,-9.556384 L 1.6171014,-4.7312771 L 8.1784751,-5.7543502 L 4.9994237,0.075909776 L 8,6 z "
         transform="matrix(1.793962,0,0,1.675983,33.32813,31.14092)" />
    </g>
    <g
       id="g4407"
       style="stroke:#ff3f3f;stroke-opacity:1"
       transform="matrix(3.966424,0.486034,-0.486034,3.966424,528.5978,-14.63052)">
      <path
         transform="matrix(1.748521,0,0,1.739793,4.338625,4.43251)"
         d="M 31.591986 15.737705 A 15.795993 15.737705 0 1 1  0,15.737705 A 15.795993 15.737705 0 1 1  31.591986 15.737705 z"
         sodipodi:ry="15.737705"
         sodipodi:rx="15.795993"
         sodipodi:cy="15.737705"
         sodipodi:cx="15.795993"
         id="path4409"
         style="fill:none;fill-opacity:0.75;fill-rule:evenodd;stroke:#ff3f3f;stroke-width:5.07078838;stroke-linecap:butt;stroke-linejoin:miter;stroke-miterlimit:4;stroke-dasharray:none;stroke-opacity:1"
         sodipodi:type="arc" />
      <path
         transform="matrix(1.793962,0,0,1.675983,33.32813,31.14092)"
         d="M 8,6 L 1.4727124,4.7781919 L -3.2342032,9.4625541 L -4.0892374,2.8771752 L -9.9988475,-0.15181996 L -4.0000001,-2.9999998 L -2.9454244,-9.556384 L 1.6171014,-4.7312771 L 8.1784751,-5.7543502 L 4.9994237,0.075909776 L 8,6 z "
         inkscape:randomized="0"
         inkscape:rounded="0"
         inkscape:flatsided="false"
         sodipodi:arg2="1.2718196"
         sodipodi:arg1="0.64350111"
         sodipodi:r2="5"
         sodipodi:r1="10"
         sodipodi:cy="0"
         sodipodi:cx="0"
         sodipodi:sides="5"
         id="path4411"
         style="fill:none;stroke:#ff3f3f;stroke-width:5;stroke-linecap:round;stroke-linejoin:miter;stroke-miterlimit:4;stroke-dasharray:none;stroke-opacity:1"
         sodipodi:type="star" />
    </g>
    <path
       style="fill:#ff3f3f;fill-opacity:0.45652179;fill-rule:evenodd;stroke:none;stroke-width:5.07078838;stroke-linecap:butt;stroke-linejoin:miter;stroke-miterlimit:4;stroke-dasharray:none;stroke-opacity:1"
       d="M 918.37287,2.0441982 C 849.38462,-10.38326 782.87354,35.137896 770.08335,103.65032 C 757.24301,172.43144 803.28155,238.94663 872.55903,251.87965 C 941.83653,264.81268 1009.0182,219.43394 1021.8586,150.65282 C 1034.699,81.871731 988.44906,15.126328 919.17157,2.1933032 C 918.90096,2.1427837 918.64341,2.0929331 918.37287,2.0441982 z M 910.95744,36.487052 C 911.54853,36.585975 912.11661,36.703452 912.70844,36.813937 C 940.76869,42.052347 963.49479,59.181562 976.5405,81.950813 L 966.79017,81.561124 L 928.76984,80.026553 L 907.79271,49.693056 L 897.78171,35.203576 C 902.13035,35.316199 906.54024,35.747816 910.95744,36.487052 z M 882.18895,36.139227 L 876.01489,52.693592 L 863.56354,86.355269 L 826.84513,95.045768 L 807.47341,99.535792 C 818.1281,65.376083 847.58048,41.109166 882.18895,36.139227 z M 985.46472,103.45372 C 988.97387,116.33941 989.69825,130.15941 987.08437,144.16102 C 984.50671,157.9686 978.93965,170.45984 971.19363,181.09077 L 967.86464,170.99592 L 956.74563,136.55807 L 980.57205,109.05726 L 985.46472,103.45372 z M 897.92976,96.394951 L 904.21807,105.45277 L 909.45498,112.82019 L 918.71584,113.27745 L 930.02303,113.67167 L 923.04754,121.74748 L 917.23245,128.54578 L 919.95363,137.12841 L 923.11551,147.0967 L 912.65214,143.20417 L 903.88448,140.10505 L 896.16728,144.83161 L 886.85961,150.75537 L 887.24481,140.17767 L 887.7504,131.3391 L 880.34384,125.88731 L 871.08964,119.26405 L 882.07002,116.6408 L 891.11384,114.51436 L 894.22688,106.3533 L 897.92976,96.394951 z M 804.46392,112.42109 L 820.92111,124.39456 L 851.16581,146.63509 L 849.52765,182.31542 L 848.44429,205.82843 C 816.67245,187.05115 798.31486,150.5434 804.46392,112.42109 z M 908.91689,177.85721 L 944.49504,191.11139 L 957.64285,195.95012 C 937.01773,214.03348 908.3918,222.74187 879.02216,217.25902 C 871.32846,215.82272 864.04345,213.51527 857.24961,210.4287 L 877.67249,197.58343 L 908.91689,177.85721 z "
       id="path4415" />
  </g>
</svg>
