<?xml version="1.0" encoding="UTF-8" standalone="no"?>
<!-- Created with Inkscape (http://www.inkscape.org/) -->
<svg
   xmlns:dc="http://purl.org/dc/elements/1.1/"
   xmlns:cc="http://web.resource.org/cc/"
   xmlns:rdf="http://www.w3.org/1999/02/22-rdf-syntax-ns#"
   xmlns:svg="http://www.w3.org/2000/svg"
   xmlns="http://www.w3.org/2000/svg"
   xmlns:xlink="http://www.w3.org/1999/xlink"
   xmlns:sodipodi="http://inkscape.sourceforge.net/DTD/sodipodi-0.dtd"
   xmlns:inkscape="http://www.inkscape.org/namespaces/inkscape"
   width="256"
   height="32"
   id="svg22579"
   sodipodi:version="0.32"
   inkscape:version="0.43"
   version="1.0"
   sodipodi:docbase="/home/nili/proj/grt/data"
   sodipodi:docname="mega_spark.svg"
   inkscape:export-filename="/home/nili/proj/grt/data/mega_spark.png"
   inkscape:export-xdpi="90"
   inkscape:export-ydpi="90">
  <defs
     id="defs22581" />
  <sodipodi:namedview
     id="base"
     pagecolor="#000000"
     bordercolor="#666666"
     borderopacity="1.0"
     inkscape:pageopacity="0"
     inkscape:pageshadow="2"
     inkscape:zoom="3.6015625"
     inkscape:cx="128"
     inkscape:cy="16"
     inkscape:document-units="px"
     inkscape:current-layer="layer1"
     showgrid="true"
     inkscape:grid-bbox="true"
     inkscape:grid-points="true"
     gridspacingx="8px"
     gridspacingy="8px"
     gridtolerance="4px"
     gridempspacing="32"
     inkscape:window-width="1016"
     inkscape:window-height="735"
     inkscape:window-x="0"
     inkscape:window-y="0" />
  <metadata
     id="metadata22584">
    <rdf:RDF>
      <cc:Work
         rdf:about="">
        <dc:format>image/svg+xml</dc:format>
        <dc:type
           rdf:resource="http://purl.org/dc/dcmitype/StillImage" />
      </cc:Work>
    </rdf:RDF>
  </metadata>
  <g
     inkscape:label="Layer 1"
     inkscape:groupmode="layer"
     id="layer1">
    <path
       style="fill:#ffffff;fill-opacity:1;stroke:none;stroke-width:3;stroke-linecap:round;stroke-linejoin:round;stroke-miterlimit:4;stroke-opacity:1"
       d="M 32,16 C 32,24.832 24.832,32 16,32 C 7.168,32 0,24.832 0,16 C 0,7.168 7.168,1.7763568e-15 16,0 C 24.832,-3.5527137e-15 32,7.168 32,16 z "
       id="path22587"
       inkscape:tile-w="32"
       inkscape:tile-h="32"
       inkscape:tile-cx="16"
       inkscape:tile-cy="16" />
    <use
       x="0"
       y="0"
       inkscape:tiled-clone-of="#path22587"
       xlink:href="#path22587"
       id="use23655" />
    <use
       x="0"
       y="0"
       inkscape:tiled-clone-of="#path22587"
       xlink:href="#path22587"
       transform="matrix(0.75,0,0,0.75,36,4)"
       id="use23657" />
    <use
       x="0"
       y="0"
       inkscape:tiled-clone-of="#path22587"
       xlink:href="#path22587"
       transform="matrix(0.5,0,0,0.5,72,8)"
       id="use23659" />
    <use
       x="0"
       y="0"
       inkscape:tiled-clone-of="#path22587"
       xlink:href="#path22587"
       transform="matrix(0.25,0,0,0.25,108,12)"
       id="use23661" />
    <path
       inkscape:tile-cy="16"
       inkscape:tile-cx="16"
       inkscape:tile-h="32"
       inkscape:tile-w="32"
       id="path23663"
       d="M 158.75715,16.128576 C 158.75715,24.20355 152.20355,30.757152 144.12857,30.757152 C 136.0536,30.757152 129.5,24.20355 129.5,16.128576 C 129.5,8.0536025 136.0536,1.5000005 144.12857,1.5000005 C 152.20355,1.5000005 158.75715,8.0536025 158.75715,16.128576 z "
       style="fill:none;fill-opacity:1;stroke:#ffffff;stroke-width:3.00000095;stroke-linecap:round;stroke-linejoin:round;stroke-miterlimit:4;stroke-opacity:1" />
    <use
       x="0"
       y="0"
       inkscape:tiled-clone-of="#path23663"
       xlink:href="#path23663"
       id="use24562" />
    <use
       x="0"
       y="0"
       inkscape:tiled-clone-of="#path23663"
       xlink:href="#path23663"
       transform="matrix(0.75,0,0,0.75,68,4)"
       id="use24564" />
    <use
       x="0"
       y="0"
       inkscape:tiled-clone-of="#path23663"
       xlink:href="#path23663"
       transform="matrix(0.5,0,0,0.5,136,8)"
       id="use24566" />
    <use
       x="0"
       y="0"
       inkscape:tiled-clone-of="#path23663"
       xlink:href="#path23663"
       transform="matrix(0.25,0,0,0.25,204,12)"
       id="use24568" />
  </g>
</svg>
