<?xml version="1.0" encoding="UTF-8" standalone="no"?>
<!-- Created with Inkscape (http://www.inkscape.org/) -->
<svg
   xmlns:dc="http://purl.org/dc/elements/1.1/"
   xmlns:cc="http://web.resource.org/cc/"
   xmlns:rdf="http://www.w3.org/1999/02/22-rdf-syntax-ns#"
   xmlns:svg="http://www.w3.org/2000/svg"
   xmlns="http://www.w3.org/2000/svg"
   xmlns:xlink="http://www.w3.org/1999/xlink"
   xmlns:sodipodi="http://inkscape.sourceforge.net/DTD/sodipodi-0.dtd"
   xmlns:inkscape="http://www.inkscape.org/namespaces/inkscape"
   width="256"
   height="64"
   id="svg9672"
   sodipodi:version="0.32"
   inkscape:version="0.43"
   version="1.0"
   sodipodi:docbase="/home/nili/proj/grt/data"
   sodipodi:docname="proto_hulk.svg"
   inkscape:export-filename="/home/nili/proj/grt/data/proto_hulk.png"
   inkscape:export-xdpi="90"
   inkscape:export-ydpi="90">
  <defs
     id="defs9674">
    <linearGradient
       id="linearGradient13227">
      <stop
         style="stop-color:#ce7d7d;stop-opacity:1;"
         offset="0"
         id="stop13229" />
      <stop
         style="stop-color:#811515;stop-opacity:1;"
         offset="1"
         id="stop13231" />
    </linearGradient>
    <radialGradient
       inkscape:collect="always"
       xlink:href="#linearGradient13227"
       id="radialGradient13233"
       cx="29.639914"
       cy="28.390455"
       fx="29.639914"
       fy="26.169197"
       r="16"
       gradientTransform="matrix(0.97376,0.227575,-0.338395,1.447939,10.38492,-21.26729)"
       gradientUnits="userSpaceOnUse" />
    <radialGradient
       inkscape:collect="always"
       xlink:href="#linearGradient13227"
       id="radialGradient13247"
       gradientUnits="userSpaceOnUse"
       gradientTransform="matrix(0.97376,0.227575,-0.338395,1.447939,138.385,-21.26729)"
       cx="29.639914"
       cy="28.390455"
       fx="29.639914"
       fy="26.169197"
       r="16" />
    <radialGradient
       inkscape:collect="always"
       xlink:href="#linearGradient13227"
       id="radialGradient13261"
       gradientUnits="userSpaceOnUse"
       gradientTransform="matrix(0.97376,0.227575,-0.338395,1.447939,202.3849,-21.26729)"
       cx="29.639914"
       cy="28.390455"
       fx="29.639914"
       fy="26.169197"
       r="16" />
    <radialGradient
       inkscape:collect="always"
       xlink:href="#linearGradient13227"
       id="radialGradient13275"
       gradientUnits="userSpaceOnUse"
       gradientTransform="matrix(0.97376,0.227575,-0.338395,1.447939,73.3437,-21.26729)"
       cx="29.639914"
       cy="28.390455"
       fx="29.639914"
       fy="26.169197"
       r="16" />
  </defs>
  <sodipodi:namedview
     id="base"
     pagecolor="#ffffff"
     bordercolor="#666666"
     borderopacity="1.0"
     inkscape:pageopacity="0.0"
     inkscape:pageshadow="2"
     inkscape:zoom="3.6015625"
     inkscape:cx="128"
     inkscape:cy="32"
     inkscape:document-units="px"
     inkscape:current-layer="layer1"
     showgrid="true"
     inkscape:grid-bbox="true"
     inkscape:grid-points="true"
     gridempspacing="8"
     inkscape:window-width="1016"
     inkscape:window-height="735"
     inkscape:window-x="0"
     inkscape:window-y="0"
     gridspacingx="8px"
     gridspacingy="8px"
     gridtolerance="4px" />
  <metadata
     id="metadata9677">
    <rdf:RDF>
      <cc:Work
         rdf:about="">
        <dc:format>image/svg+xml</dc:format>
        <dc:type
           rdf:resource="http://purl.org/dc/dcmitype/StillImage" />
      </cc:Work>
    </rdf:RDF>
  </metadata>
  <g
     inkscape:label="Layer 1"
     inkscape:groupmode="layer"
     id="layer1">
    <path
       style="fill:url(#radialGradient13233);fill-opacity:1;stroke:none;stroke-width:2;stroke-linejoin:round;stroke-miterlimit:4;stroke-opacity:1"
       d="M 48,40 C 48,48 40.832,56 32,56 C 23.168,56 16,48 16,40 C 16,22.336 23.168,8 32,8 C 40.832,8 48,22.336 48,40 z "
       id="path9707"
       sodipodi:nodetypes="csssc" />
    <path
       sodipodi:type="arc"
       style="fill:#ffffff;fill-opacity:1;stroke:none;stroke-width:2;stroke-linejoin:round;stroke-miterlimit:4;stroke-dasharray:none;stroke-opacity:1"
       id="path9718"
       sodipodi:cx="22.281996"
       sodipodi:cy="22.490238"
       sodipodi:rx="3.1236444"
       sodipodi:ry="5.5531454"
       d="M 25.40564 22.490238 A 3.1236444 5.5531454 0 1 1  19.158351,22.490238 A 3.1236444 5.5531454 0 1 1  25.40564 22.490238 z"
       transform="translate(-0.832972,0.694143)" />
    <path
       d="M 25.40564 22.490238 A 3.1236444 5.5531454 0 1 1  19.158351,22.490238 A 3.1236444 5.5531454 0 1 1  25.40564 22.490238 z"
       sodipodi:ry="5.5531454"
       sodipodi:rx="3.1236444"
       sodipodi:cy="22.490238"
       sodipodi:cx="22.281996"
       id="path10593"
       style="fill:#000000;fill-opacity:1;stroke:none;stroke-width:2;stroke-linejoin:round;stroke-miterlimit:4;stroke-dasharray:none;stroke-opacity:1"
       sodipodi:type="arc"
       transform="matrix(0.422222,0,0,0.422222,11.34693,14.24381)" />
    <path
       d="M 25.40564 22.490238 A 3.1236444 5.5531454 0 1 1  19.158351,22.490238 A 3.1236444 5.5531454 0 1 1  25.40564 22.490238 z"
       sodipodi:ry="5.5531454"
       sodipodi:rx="3.1236444"
       sodipodi:cy="22.490238"
       sodipodi:cx="22.281996"
       id="path11468"
       style="fill:#ffffff;fill-opacity:1;stroke:none;stroke-width:2;stroke-linejoin:round;stroke-miterlimit:4;stroke-dasharray:none;stroke-opacity:1"
       sodipodi:type="arc"
       transform="translate(7.635575,1.665943)" />
    <path
       transform="matrix(0.422222,0,0,0.422222,19.81548,15.21561)"
       sodipodi:type="arc"
       style="fill:#000000;fill-opacity:1;stroke:none;stroke-width:2;stroke-linejoin:round;stroke-miterlimit:4;stroke-dasharray:none;stroke-opacity:1"
       id="path11470"
       sodipodi:cx="22.281996"
       sodipodi:cy="22.490238"
       sodipodi:rx="3.1236444"
       sodipodi:ry="5.5531454"
       d="M 25.40564 22.490238 A 3.1236444 5.5531454 0 1 1  19.158351,22.490238 A 3.1236444 5.5531454 0 1 1  25.40564 22.490238 z" />
    <path
       style="fill:none;fill-opacity:0.75;fill-rule:evenodd;stroke:#ffffff;stroke-width:3;stroke-linecap:round;stroke-linejoin:miter;stroke-miterlimit:4;stroke-dasharray:none;stroke-opacity:1"
       d="M 14.299349,33.457703 C 21.978943,29.193088 25.971501,31.542305 29.09369,33.004886 C 32.27125,34.493406 34.21078,36.843151 35.956615,39.288505"
       id="path11472"
       sodipodi:nodetypes="czc" />
    <path
       sodipodi:nodetypes="csssc"
       id="path13235"
       d="M 176.00004,40 C 176.00004,48 168.83204,56 160.00004,56 C 151.16804,56 144.00004,48 144.00004,40 C 144.00004,22.336 151.16804,8 160.00004,8 C 168.83204,8 176.00004,22.336 176.00004,40 z "
       style="fill:url(#radialGradient13247);fill-opacity:1;stroke:none;stroke-width:2;stroke-linejoin:round;stroke-miterlimit:4;stroke-opacity:1" />
    <path
       transform="matrix(-1,0,0,1,193.4056,-9.4362e-2)"
       d="M 25.40564 22.490238 A 3.1236444 5.5531454 0 1 1  19.158351,22.490238 A 3.1236444 5.5531454 0 1 1  25.40564 22.490238 z"
       sodipodi:ry="5.5531454"
       sodipodi:rx="3.1236444"
       sodipodi:cy="22.490238"
       sodipodi:cx="22.281996"
       id="path13237"
       style="fill:#ffffff;fill-opacity:1;stroke:none;stroke-width:2;stroke-linejoin:round;stroke-miterlimit:4;stroke-dasharray:none;stroke-opacity:1"
       sodipodi:type="arc" />
    <path
       transform="matrix(-0.422222,0,0,0.422222,181.2257,13.4553)"
       sodipodi:type="arc"
       style="fill:#000000;fill-opacity:1;stroke:none;stroke-width:2;stroke-linejoin:round;stroke-miterlimit:4;stroke-dasharray:none;stroke-opacity:1"
       id="path13239"
       sodipodi:cx="22.281996"
       sodipodi:cy="22.490238"
       sodipodi:rx="3.1236444"
       sodipodi:ry="5.5531454"
       d="M 25.40564 22.490238 A 3.1236444 5.5531454 0 1 1  19.158351,22.490238 A 3.1236444 5.5531454 0 1 1  25.40564 22.490238 z" />
    <path
       transform="matrix(-1,0,0,1,184.9371,0.877438)"
       sodipodi:type="arc"
       style="fill:#ffffff;fill-opacity:1;stroke:none;stroke-width:2;stroke-linejoin:round;stroke-miterlimit:4;stroke-dasharray:none;stroke-opacity:1"
       id="path13241"
       sodipodi:cx="22.281996"
       sodipodi:cy="22.490238"
       sodipodi:rx="3.1236444"
       sodipodi:ry="5.5531454"
       d="M 25.40564 22.490238 A 3.1236444 5.5531454 0 1 1  19.158351,22.490238 A 3.1236444 5.5531454 0 1 1  25.40564 22.490238 z" />
    <path
       d="M 25.40564 22.490238 A 3.1236444 5.5531454 0 1 1  19.158351,22.490238 A 3.1236444 5.5531454 0 1 1  25.40564 22.490238 z"
       sodipodi:ry="5.5531454"
       sodipodi:rx="3.1236444"
       sodipodi:cy="22.490238"
       sodipodi:cx="22.281996"
       id="path13243"
       style="fill:#000000;fill-opacity:1;stroke:none;stroke-width:2;stroke-linejoin:round;stroke-miterlimit:4;stroke-dasharray:none;stroke-opacity:1"
       sodipodi:type="arc"
       transform="matrix(-0.422222,0,0,0.422222,172.7572,14.4271)" />
    <path
       sodipodi:nodetypes="czc"
       id="path13245"
       d="M 178.2734,32.669198 C 170.5938,28.404583 166.60124,30.7538 163.47905,32.216381 C 160.30149,33.704901 158.36196,36.054646 156.61613,38.5"
       style="fill:none;fill-opacity:0.75;fill-rule:evenodd;stroke:#ffffff;stroke-width:3;stroke-linecap:round;stroke-linejoin:miter;stroke-miterlimit:4;stroke-dasharray:none;stroke-opacity:1" />
    <path
       style="fill:url(#radialGradient13261);fill-opacity:1;stroke:none;stroke-width:2;stroke-linejoin:round;stroke-miterlimit:4;stroke-opacity:1"
       d="M 240,40 C 240,48 232.832,56 224,56 C 215.168,56 208,48 208,40 C 208,22.336 215.168,8 224,8 C 232.832,8 240,22.336 240,40 z "
       id="path13249"
       sodipodi:nodetypes="csssc" />
    <path
       style="fill:none;fill-opacity:0.75;fill-rule:evenodd;stroke:#ffffff;stroke-width:3;stroke-linecap:round;stroke-linejoin:miter;stroke-miterlimit:4;stroke-dasharray:none;stroke-opacity:1"
       d="M 242.27336,32.669198 C 234.59376,28.404583 230.6012,30.7538 227.47901,32.216381 C 224.30145,33.704901 222.36192,36.054646 220.61609,38.5"
       id="path13259"
       sodipodi:nodetypes="czc" />
    <path
       sodipodi:nodetypes="csssc"
       id="path13263"
       d="M 110.95878,40 C 110.95878,48 103.79078,56 94.958785,56 C 86.126785,56 78.958785,48 78.958785,40 C 78.958785,22.336 86.126785,8 94.958785,8 C 103.79078,8 110.95878,22.336 110.95878,40 z "
       style="fill:url(#radialGradient13275);fill-opacity:1;stroke:none;stroke-width:2;stroke-linejoin:round;stroke-miterlimit:4;stroke-opacity:1" />
    <path
       sodipodi:nodetypes="czc"
       id="path13273"
       d="M 77.258134,33.457703 C 84.937728,29.193088 88.930286,31.542305 92.052475,33.004886 C 95.230035,34.493406 97.169565,36.843151 98.9154,39.288505"
       style="fill:none;fill-opacity:0.75;fill-rule:evenodd;stroke:#ffffff;stroke-width:3;stroke-linecap:round;stroke-linejoin:miter;stroke-miterlimit:4;stroke-dasharray:none;stroke-opacity:1" />
  </g>
</svg>
