<?xml version="1.0" encoding="UTF-8" standalone="no"?>
<!-- Created with Inkscape (http://www.inkscape.org/) -->
<svg
   xmlns:dc="http://purl.org/dc/elements/1.1/"
   xmlns:cc="http://web.resource.org/cc/"
   xmlns:rdf="http://www.w3.org/1999/02/22-rdf-syntax-ns#"
   xmlns:svg="http://www.w3.org/2000/svg"
   xmlns="http://www.w3.org/2000/svg"
   xmlns:sodipodi="http://inkscape.sourceforge.net/DTD/sodipodi-0.dtd"
   xmlns:inkscape="http://www.inkscape.org/namespaces/inkscape"
   width="1024"
   height="256"
   id="svg2"
   sodipodi:version="0.32"
   inkscape:version="0.43"
   version="1.0"
   sodipodi:docbase="/home/nili/proj/grt/data"
   sodipodi:docname="bomb.svg"
   inkscape:export-filename="/home/nili/proj/grt/data/pickup.png"
   inkscape:export-xdpi="90"
   inkscape:export-ydpi="90">
  <defs
     id="defs4" />
  <sodipodi:namedview
     id="base"
     pagecolor="#ffffff"
     bordercolor="#666666"
     borderopacity="1.0"
     inkscape:pageopacity="0.0"
     inkscape:pageshadow="2"
     inkscape:zoom="1.0722656"
     inkscape:cx="512"
     inkscape:cy="128"
     inkscape:document-units="px"
     inkscape:current-layer="layer1"
     inkscape:window-width="1192"
     inkscape:window-height="1546"
     inkscape:window-x="0"
     inkscape:window-y="0"
     showgrid="true"
     inkscape:grid-bbox="true"
     inkscape:grid-points="true"
     gridspacingx="64px"
     gridspacingy="64px"
     gridtolerance="32px" />
  <metadata
     id="metadata7">
    <rdf:RDF>
      <cc:Work
         rdf:about="">
        <dc:format>image/svg+xml</dc:format>
        <dc:type
           rdf:resource="http://purl.org/dc/dcmitype/StillImage" />
      </cc:Work>
    </rdf:RDF>
  </metadata>
  <g
     inkscape:label="Layer 1"
     inkscape:groupmode="layer"
     id="layer1">
    <g
       id="g2645"
       style="stroke:#ff3f3f;stroke-opacity:1"
       transform="matrix(3.860424,0,0,3.780855,4.585844,6.816141)">
      <path
         transform="matrix(1.748521,0,0,1.739793,4.338625,4.43251)"
         d="M 31.591986 15.737705 A 15.795993 15.737705 0 1 1  0,15.737705 A 15.795993 15.737705 0 1 1  31.591986 15.737705 z"
         sodipodi:ry="15.737705"
         sodipodi:rx="15.795993"
         sodipodi:cy="15.737705"
         sodipodi:cx="15.795993"
         id="path1325"
         style="fill:none;fill-opacity:0.75;fill-rule:evenodd;stroke:#ff3f3f;stroke-width:5.07078838;stroke-linecap:butt;stroke-linejoin:miter;stroke-miterlimit:4;stroke-dasharray:none;stroke-opacity:1"
         sodipodi:type="arc" />
      <path
         transform="matrix(1.793962,0,0,1.675983,33.32813,31.14092)"
         d="M 8,6 L 1.4727124,4.7781919 L -3.2342032,9.4625541 L -4.0892374,2.8771752 L -9.9988475,-0.15181996 L -4.0000001,-2.9999998 L -2.9454244,-9.556384 L 1.6171014,-4.7312771 L 8.1784751,-5.7543502 L 4.9994237,0.075909776 L 8,6 z "
         inkscape:randomized="0"
         inkscape:rounded="0"
         inkscape:flatsided="false"
         sodipodi:arg2="1.2718196"
         sodipodi:arg1="0.64350111"
         sodipodi:r2="5"
         sodipodi:r1="10"
         sodipodi:cy="0"
         sodipodi:cx="0"
         sodipodi:sides="5"
         id="path2200"
         style="fill:none;stroke:#ff3f3f;stroke-width:5;stroke-linecap:round;stroke-linejoin:miter;stroke-miterlimit:4;stroke-dasharray:none;stroke-opacity:1"
         sodipodi:type="star" />
    </g>
    <g
       transform="matrix(3.984956,0.298116,-0.298116,3.984956,266.0274,-9.214573)"
       style="stroke:#ff3f3f;stroke-opacity:1"
       id="g4401">
      <path
         sodipodi:type="arc"
         style="fill:none;fill-opacity:0.75;fill-rule:evenodd;stroke:#ff3f3f;stroke-width:5.07078838;stroke-linecap:butt;stroke-linejoin:miter;stroke-miterlimit:4;stroke-dasharray:none;stroke-opacity:1"
         id="path4403"
         sodipodi:cx="15.795993"
         sodipodi:cy="15.737705"
         sodipodi:rx="15.795993"
         sodipodi:ry="15.737705"
         d="M 31.591986 15.737705 A 15.795993 15.737705 0 1 1  0,15.737705 A 15.795993 15.737705 0 1 1  31.591986 15.737705 z"
         transform="matrix(1.748521,0,0,1.739793,4.338625,4.43251)" />
      <path
         sodipodi:type="star"
         style="fill:none;stroke:#ff3f3f;stroke-width:5;stroke-linecap:round;stroke-linejoin:miter;stroke-miterlimit:4;stroke-dasharray:none;stroke-opacity:1"
         id="path4405"
         sodipodi:sides="5"
         sodipodi:cx="0"
         sodipodi:cy="0"
         sodipodi:r1="10"
         sodipodi:r2="5"
         sodipodi:arg1="0.64350111"
         sodipodi:arg2="1.2718196"
         inkscape:flatsided="false"
         inkscape:rounded="0"
         inkscape:randomized="0"
         d="M 8,6 L 1.4727124,4.7781919 L -3.2342032,9.4625541 L -4.0892374,2.8771752 L -9.9988475,-0.15181996 L -4.0000001,-2.9999998 L -2.9454244,-9.556384 L 1.6171014,-4.7312771 L 8.1784751,-5.7543502 L 4.9994237,0.075909776 L 8,6 z "
         transform="matrix(1.793962,0,0,1.675983,33.32813,31.14092)" />
    </g>
    <g
       id="g4407"
       style="stroke:#ff3f3f;stroke-opacity:1"
       transform="matrix(3.966424,0.486034,-0.486034,3.966424,528.5978,-14.63052)">
      <path
         transform="matrix(1.748521,0,0,1.739793,4.338625,4.43251)"
         d="M 31.591986 15.737705 A 15.795993 15.737705 0 1 1  0,15.737705 A 15.795993 15.737705 0 1 1  31.591986 15.737705 z"
         sodipodi:ry="15.737705"
         sodipodi:rx="15.795993"
         sodipodi:cy="15.737705"
         sodipodi:cx="15.795993"
         id="path4409"
         style="fill:none;fill-opacity:0.75;fill-rule:evenodd;stroke:#ff3f3f;stroke-width:5.07078838;stroke-linecap:butt;stroke-linejoin:miter;stroke-miterlimit:4;stroke-dasharray:none;stroke-opacity:1"
         sodipodi:type="arc" />
      <path
         transform="matrix(1.793962,0,0,1.675983,33.32813,31.14092)"
         d="M 8,6 L 1.4727124,4.7781919 L -3.2342032,9.4625541 L -4.0892374,2.8771752 L -9.9988475,-0.15181996 L -4.0000001,-2.9999998 L -2.9454244,-9.556384 L 1.6171014,-4.7312771 L 8.1784751,-5.7543502 L 4.9994237,0.075909776 L 8,6 z "
         inkscape:randomized="0"
         inkscape:rounded="0"
         inkscape:flatsided="false"
         sodipodi:arg2="1.2718196"
         sodipodi:arg1="0.64350111"
         sodipodi:r2="5"
         sodipodi:r1="10"
         sodipodi:cy="0"
         sodipodi:cx="0"
         sodipodi:sides="5"
         id="path4411"
         style="fill:none;stroke:#ff3f3f;stroke-width:5;stroke-linecap:round;stroke-linejoin:miter;stroke-miterlimit:4;stroke-dasharray:none;stroke-opacity:1"
         sodipodi:type="star" />
    </g>
    <path
       style="fill:#ff3f3f;fill-opacity:0.45652179;fill-rule:evenodd;stroke:none;stroke-width:5.07078838;stroke-linecap:butt;stroke-linejoin:miter;stroke-miterlimit:4;stroke-dasharray:none;stroke-opacity:1"
       d="M 920.60337,2.0472808 C 851.61512,-10.380177 785.10404,35.140979 772.31385,103.6534 C 759.47351,172.43452 805.51205,238.94971 874.78953,251.88273 C 944.06703,264.81576 1011.2487,219.43702 1024.0891,150.6559 C 1036.9295,81.874814 990.67956,15.129411 921.40207,2.1963858 C 921.13146,2.1458663 920.87391,2.0960157 920.60337,2.0472808 z M 913.18794,36.490135 C 913.77903,36.589058 914.34711,36.706535 914.93894,36.81702 C 942.99919,42.05543 965.72529,59.184645 978.771,81.953896 L 969.02067,81.564207 L 931.00034,80.029636 L 910.02321,49.696139 L 900.01221,35.206659 C 904.36085,35.319282 908.77074,35.750899 913.18794,36.490135 z M 884.41945,36.14231 L 878.24539,52.696675 L 865.79404,86.358352 L 829.07563,95.048851 L 809.70391,99.538875 C 820.3586,65.379166 849.81098,41.112249 884.41945,36.14231 z M 987.69522,103.4568 C 991.20437,116.34249 991.92875,130.16249 989.31487,144.1641 C 986.73721,157.97168 981.17015,170.46292 973.42413,181.09385 L 970.09514,170.999 L 958.97613,136.56115 L 982.80255,109.06034 L 987.69522,103.4568 z M 900.16026,96.398034 L 906.44857,105.45585 L 911.68548,112.82327 L 920.94634,113.28053 L 932.25353,113.67475 L 925.27804,121.75056 L 919.46295,128.54886 L 922.18413,137.13149 L 925.34601,147.09978 L 914.88264,143.20725 L 906.11498,140.10813 L 898.39778,144.83469 L 889.09011,150.75845 L 889.47531,140.18075 L 889.9809,131.34218 L 882.57434,125.89039 L 873.32014,119.26713 L 884.30052,116.64388 L 893.34434,114.51744 L 896.45738,106.35638 L 900.16026,96.398034 z M 806.69442,112.42417 L 823.15161,124.39764 L 853.39631,146.63817 L 851.75815,182.3185 L 850.67479,205.83151 C 818.90295,187.05423 800.54536,150.54648 806.69442,112.42417 z M 911.14739,177.86029 L 946.72554,191.11447 L 959.87335,195.9532 C 939.24823,214.03656 910.6223,222.74495 881.25266,217.2621 C 873.55896,215.8258 866.27395,213.51835 859.48011,210.43178 L 879.90299,197.58651 L 911.14739,177.86029 z "
       id="path4415" />
  </g>
</svg>
