<?xml version="1.0" encoding="UTF-8" standalone="no"?>
<!-- Created with Inkscape (http://www.inkscape.org/) -->
<svg
   xmlns:dc="http://purl.org/dc/elements/1.1/"
   xmlns:cc="http://web.resource.org/cc/"
   xmlns:rdf="http://www.w3.org/1999/02/22-rdf-syntax-ns#"
   xmlns:svg="http://www.w3.org/2000/svg"
   xmlns="http://www.w3.org/2000/svg"
   xmlns:xlink="http://www.w3.org/1999/xlink"
   xmlns:sodipodi="http://inkscape.sourceforge.net/DTD/sodipodi-0.dtd"
   xmlns:inkscape="http://www.inkscape.org/namespaces/inkscape"
   width="128"
   height="64"
   id="svg13285"
   sodipodi:version="0.32"
   inkscape:version="0.43"
   version="1.0"
   sodipodi:docbase="/home/nili/proj/grt/data"
   sodipodi:docname="cat.svg"
   inkscape:export-filename="/home/nili/proj/grt/data/cat.png"
   inkscape:export-xdpi="90"
   inkscape:export-ydpi="90">
  <defs
     id="defs13287" />
  <sodipodi:namedview
     id="base"
     pagecolor="#ffffff"
     bordercolor="#666666"
     borderopacity="1.0"
     inkscape:pageopacity="0.0"
     inkscape:pageshadow="2"
     inkscape:zoom="7.203125"
     inkscape:cx="64.438501"
     inkscape:cy="30.583478"
     inkscape:document-units="px"
     inkscape:current-layer="g16241"
     gridspacingx="2px"
     gridspacingy="2px"
     gridtolerance="1px"
     gridempspacing="8"
     showgrid="true"
     inkscape:grid-bbox="false"
     inkscape:grid-points="false"
     inkscape:window-width="1016"
     inkscape:window-height="735"
     inkscape:window-x="0"
     inkscape:window-y="0" />
  <metadata
     id="metadata13290">
    <rdf:RDF>
      <cc:Work
         rdf:about="">
        <dc:format>image/svg+xml</dc:format>
        <dc:type
           rdf:resource="http://purl.org/dc/dcmitype/StillImage" />
      </cc:Work>
    </rdf:RDF>
  </metadata>
  <g
     inkscape:label="Layer 1"
     inkscape:groupmode="layer"
     id="layer1">
    <g
       id="g16241"
       transform="matrix(-1,0,0,1,65.53915,0)">
      <path
         sodipodi:type="arc"
         style="fill:#404040;fill-opacity:1;stroke:none;stroke-width:3;stroke-linecap:round;stroke-linejoin:round;stroke-miterlimit:4;stroke-dasharray:none;stroke-opacity:1"
         id="path16243"
         sodipodi:cx="40"
         sodipodi:cy="26"
         sodipodi:rx="4"
         sodipodi:ry="2"
         d="M 44 26 A 4 2 0 1 1  36,26 A 4 2 0 1 1  44 26 z"
         transform="matrix(5.920006e-2,1.011457,-1.301141,1.402245,74.43494,-56.3802)" />
      <path
         transform="matrix(0.232981,0.986037,1.648259,0.970825,-16.38746,-43.06905)"
         style="fill:#404040;fill-opacity:1;stroke:none;stroke-width:3;stroke-linecap:round;stroke-linejoin:round;stroke-miterlimit:4;stroke-opacity:1"
         d="M 44,26 C 44,27.104 42.208,28 40,28 C 37.792,28 36,27.104 36,26 C 36,24.896 37.820601,23.978263 40,24 C 49.854923,24.098293 44,24.896 44,26 z "
         id="path16245"
         sodipodi:nodetypes="csssc" />
      <path
         style="fill:#404040;fill-opacity:1;stroke:none;stroke-width:3;stroke-linecap:round;stroke-linejoin:round;stroke-miterlimit:4;stroke-opacity:1"
         d="M 50.360087,25.613883 C 51.255604,28.911806 48.800628,31.626008 44.384628,31.626008 C 39.968628,31.626008 34.360087,30.029883 34.360087,25.613883 C 34.360087,21.197883 37.944087,19.613883 42.360087,19.613883 C 46.776087,19.613883 49.21951,21.413478 50.360087,25.613883 z "
         id="path16247"
         sodipodi:nodetypes="cssss" />
      <path
         style="fill:#404040;fill-opacity:1;fill-rule:evenodd;stroke:none;stroke-width:1px;stroke-linecap:butt;stroke-linejoin:miter;stroke-opacity:1"
         d="M 34.338199,32.594083 C 35.18107,34.011818 34.602469,35.824939 35.475313,37.231927 C 36.067574,38.81541 35.368656,40.475633 35.429069,42.097274 C 35.345291,43.840316 35.432499,45.786143 36.638404,47.16786 C 37.081576,47.71672 37.701548,48.243649 38.452133,48.155014 C 39.134144,48.16507 39.819846,48.082255 40.473459,47.884145 C 41.132857,47.253741 40.714237,46.301204 40.554956,45.552043 C 40.221941,43.716763 40.308774,41.828475 39.896003,40.004785 C 39.501558,37.219806 39.230038,34.411265 38.602538,31.664889 C 38.153031,30.797817 36.883203,30.68973 36.157796,31.261368 C 35.478507,31.605958 35.154618,32.494908 34.338199,32.594083 z "
         id="path16249" />
      <path
         style="fill:#404040;fill-opacity:1;fill-rule:evenodd;stroke:none;stroke-width:1px;stroke-linecap:butt;stroke-linejoin:miter;stroke-opacity:1"
         d="M 34.827917,27.102671 C 34.8906,29.282606 32.901377,30.981075 30.955569,31.054631 C 28.552748,31.087887 26.390719,29.476135 23.964542,29.741913 C 22.270655,29.738296 20.28857,30.142308 19.303103,31.759608 C 18.205436,33.84143 18.070033,36.614847 19.323675,38.652768 C 20.78786,40.731377 23.293411,41.627347 25.648449,41.827173 C 27.56532,41.954365 29.452907,41.380816 31.18668,40.560215 C 33.104324,39.908928 35.23663,39.266275 36.522466,37.50337 C 37.481772,35.812173 37.961825,33.883872 38.602026,32.047418 C 39.007727,30.282147 38.587381,27.994887 36.897465,27.16348 C 36.256964,26.846613 35.475854,26.75887 34.827917,27.102671 z "
         id="path16251" />
      <path
         id="path16253"
         d="M 37.675866,31.023416 C 38.518737,32.441151 37.940136,34.254272 38.81298,35.66126 C 39.405241,37.244743 38.706323,38.904966 38.766736,40.526607 C 38.682958,42.269649 38.770166,44.215476 39.976071,45.597193 C 40.419243,46.146053 41.039215,46.672982 41.7898,46.584347 C 42.471811,46.594403 43.157513,46.511588 43.811126,46.313478 C 44.470524,45.683074 44.051904,44.730537 43.892623,43.981376 C 43.559608,42.146096 43.646441,40.257808 43.23367,38.434118 C 42.839225,35.649139 42.567705,32.840598 41.940205,30.094222 C 41.490698,29.22715 40.22087,29.119063 39.495463,29.690701 C 38.816174,30.035291 38.492285,30.924241 37.675866,31.023416 z "
         style="fill:#404040;fill-opacity:1;fill-rule:evenodd;stroke:none;stroke-width:1px;stroke-linecap:butt;stroke-linejoin:miter;stroke-opacity:1" />
      <path
         sodipodi:nodetypes="cssss"
         id="path16255"
         d="M 50.168908,28.522673 C 48.636576,30.941234 47.422738,31.724175 44.268452,31.724175 C 41.114166,31.724175 39.869254,30.556614 39.869254,28.502697 C 39.869254,26.448781 42.429254,25.71205 45.58354,25.71205 C 47.869254,25.71205 51.354565,26.651287 50.168908,28.522673 z "
         style="fill:#ffffff;fill-opacity:1;stroke:none;stroke-width:3;stroke-linecap:round;stroke-linejoin:round;stroke-miterlimit:4;stroke-opacity:1" />
      <path
         style="fill:#4ab700;fill-opacity:1;fill-rule:evenodd;stroke:none;stroke-width:1px;stroke-linecap:butt;stroke-linejoin:miter;stroke-opacity:1;display:inline"
         d="M 44.504532,24.302674 C 45.067794,23.185686 46.189563,22.283071 47.470182,22.222863 C 47.870998,22.21404 48.518458,22.449046 49.094992,22.636712 C 49.00656,23.394198 48.912551,23.793729 48.62254,24.276044 C 48.178525,25.014476 47.932898,25.206116 47.478313,25.40003 C 46.990157,25.608266 46.5126,25.558604 46.029214,25.34398 C 45.443311,25.152706 44.760078,24.923232 44.504532,24.302674 z "
         id="path16257"
         sodipodi:nodetypes="cccsscc" />
      <path
         sodipodi:type="arc"
         style="fill:#000000;fill-opacity:1;stroke:none;stroke-width:2;stroke-linejoin:round;stroke-miterlimit:4;stroke-dasharray:none;stroke-opacity:1;display:inline"
         id="path16259"
         sodipodi:cx="770.60596"
         sodipodi:cy="576.75659"
         sodipodi:rx="2.2697022"
         sodipodi:ry="10.339755"
         d="M 772.87566 576.75659 A 2.2697022 10.339755 0 1 1  768.33625,576.75659 A 2.2697022 10.339755 0 1 1  772.87566 576.75659 z"
         transform="matrix(0.131472,0,0,0.131472,-54.09289,-52.06484)" />
      <path
         sodipodi:nodetypes="cccsscc"
         id="path16261"
         d="M 43.2241,24.131213 C 42.43659,23.159229 41.148797,22.515278 39.884578,22.728258 C 39.491023,22.804709 38.908195,23.171786 38.384629,23.477546 C 38.631825,24.199003 38.808494,24.569476 39.19427,24.979247 C 39.7849,25.60661 40.065606,25.741747 40.550993,25.834758 C 41.072226,25.934637 41.52836,25.784744 41.955177,25.472411 C 42.487133,25.161135 43.106091,24.791872 43.2241,24.131213 z "
         style="fill:#4ab700;fill-opacity:1;fill-rule:evenodd;stroke:none;stroke-width:1px;stroke-linecap:butt;stroke-linejoin:miter;stroke-opacity:1;display:inline" />
      <path
         transform="matrix(-0.131472,0,0,0.131472,142.3855,-51.59359)"
         d="M 772.87566 576.75659 A 2.2697022 10.339755 0 1 1  768.33625,576.75659 A 2.2697022 10.339755 0 1 1  772.87566 576.75659 z"
         sodipodi:ry="10.339755"
         sodipodi:rx="2.2697022"
         sodipodi:cy="576.75659"
         sodipodi:cx="770.60596"
         id="path16263"
         style="fill:#000000;fill-opacity:1;stroke:none;stroke-width:2;stroke-linejoin:round;stroke-miterlimit:4;stroke-dasharray:none;stroke-opacity:1;display:inline"
         sodipodi:type="arc" />
      <path
         style="fill:#404040;fill-opacity:1;fill-rule:evenodd;stroke:none;stroke-width:1px;stroke-linecap:butt;stroke-linejoin:miter;stroke-opacity:1"
         d="M 18.616827,37.778957 C 18.518287,38.431763 18.121629,39.601963 17.868448,40.459929 C 17.73896,40.898726 17.517423,41.260192 17.120066,41.619268 C 16.811461,41.898143 16.692421,42.210842 16.692421,42.633689 C 16.692421,43.058774 17.061507,43.278899 17.333889,43.648111 C 17.538324,43.925221 18.183591,44.223992 18.403004,44.372698 C 18.825651,44.659145 19.308584,45.178243 19.685941,45.604495 C 19.990332,45.948329 20.172989,46.213692 20.541232,46.546459 C 20.846295,46.822132 21.061089,46.971248 21.396524,47.198587 C 21.707965,47.409665 22.202962,47.60023 22.465638,47.778257 C 22.877919,48.057678 24.114157,47.995633 24.710777,47.995633 C 25.379201,47.995633 25.982751,47.870688 26.528271,47.778257 C 27.222836,47.660572 27.337351,47.427644 27.490474,46.908752 C 27.555707,46.687696 26.672428,46.241976 26.528271,46.111706 C 25.765272,45.422215 25.318947,45.414444 24.817689,44.734991 C 24.517251,44.32775 24.346614,44.096455 24.069308,43.72057 C 23.763866,43.306547 23.64436,43.066613 24.069308,42.778607 C 25.149678,42.046392 25.711823,41.079215 26.100625,40.025177 C 26.171899,39.831953 26.243174,39.63873 26.314447,39.445507 C 26.650572,38.53428 27.4595,37.835672 26.207537,37.199288 C 25.698261,36.940418 24.773587,36.964854 24.283131,36.909453 C 23.658705,36.83892 22.951502,36.772427 22.358727,36.692077 C 21.32261,36.551633 20.069665,36.87107 19.258295,37.054371 C 18.608756,37.201111 18.756318,37.30626 18.616827,37.778957 z "
         id="path16265" />
      <path
         id="path16267"
         d="M 24.015994,36.404624 C 23.917454,37.05743 23.520796,38.22763 23.267615,39.085596 C 23.138127,39.524393 22.91659,39.885859 22.519233,40.244935 C 22.210628,40.52381 22.091588,40.836509 22.091588,41.259356 C 22.091588,41.684441 22.460674,41.904566 22.733056,42.273778 C 22.937491,42.550888 23.582758,42.849659 23.802171,42.998365 C 24.224818,43.284812 24.707751,43.80391 25.085108,44.230162 C 25.389499,44.573996 25.572156,44.839359 25.940399,45.172126 C 26.245462,45.447799 26.460256,45.596915 26.795691,45.824254 C 27.107132,46.035332 27.602129,46.225897 27.864805,46.403924 C 28.277086,46.683345 29.513324,46.6213 30.109944,46.6213 C 30.778368,46.6213 31.381918,46.496355 31.927438,46.403924 C 32.622003,46.286239 32.736518,46.053311 32.889641,45.534419 C 32.954874,45.313363 32.071595,44.867643 31.927438,44.737373 C 31.164439,44.047882 30.718114,44.040111 30.216856,43.360658 C 29.916418,42.953417 29.745781,42.722122 29.468475,42.346237 C 29.163033,41.932214 29.043527,41.69228 29.468475,41.404274 C 30.548845,40.672059 31.11099,39.704882 31.499792,38.650844 C 31.571066,38.45762 31.642341,38.264397 31.713614,38.071174 C 32.049739,37.159947 32.858667,36.461339 31.606704,35.824955 C 31.097428,35.566085 30.172754,35.590521 29.682298,35.53512 C 29.057872,35.464587 28.350669,35.398094 27.757894,35.317744 C 26.721777,35.1773 25.468832,35.496737 24.657462,35.680038 C 24.007923,35.826778 24.155485,35.931927 24.015994,36.404624 z "
         style="fill:#404040;fill-opacity:1;fill-rule:evenodd;stroke:none;stroke-width:1px;stroke-linecap:butt;stroke-linejoin:miter;stroke-opacity:1" />
      <path
         style="fill:none;fill-opacity:0.75;fill-rule:evenodd;stroke:#3f3f3f;stroke-width:3;stroke-linecap:round;stroke-linejoin:miter;stroke-miterlimit:4;stroke-dasharray:none;stroke-opacity:1"
         d="M 16.496087,15.107716 C 16.736623,15.296385 17.695547,15.810977 18.066754,16.089382 C 18.43077,16.362395 18.7395,16.747707 18.950254,17.169216 C 19.141397,17.551502 19.342921,17.973687 19.342921,18.543549 C 19.342921,19.017556 19.539254,19.434212 19.539254,20.016049 C 19.539254,20.510343 19.352816,21.056301 19.244754,21.488549 C 19.110205,22.026743 18.981078,22.248755 18.852087,22.764716 C 18.692584,23.402729 18.498617,23.884096 18.361254,24.433549 C 18.219487,25.000618 18.107676,25.644193 17.968587,26.200549 C 17.841485,26.708959 17.968281,27.475492 18.066754,27.869383 C 18.171742,28.289335 18.36834,29.061555 18.557587,29.440049 C 18.820425,29.965726 19.260361,30.251394 19.539254,30.716216 C 19.781431,31.119844 20.570717,31.624852 21.011754,31.992383 C 21.386506,32.304676 21.736494,32.609563 22.091587,32.875883"
         id="path16269" />
      <path
         sodipodi:type="arc"
         style="fill:#f08e8e;fill-opacity:1;stroke:none;stroke-width:3;stroke-linecap:round;stroke-linejoin:round;stroke-miterlimit:4;stroke-dasharray:none;stroke-opacity:1"
         id="path16271"
         sodipodi:cx="44.665833"
         sodipodi:cy="33.371998"
         sodipodi:rx="1.2761667"
         sodipodi:ry="0.58899999"
         d="M 45.941999 33.371998 A 1.2761667 0.58899999 0 1 1  43.389666,33.371998 A 1.2761667 0.58899999 0 1 1  45.941999 33.371998 z"
         transform="translate(2.360087,-6.386117)" />
      <path
         style="fill:#ffffff;fill-opacity:1;fill-rule:evenodd;stroke:none;stroke-width:3;stroke-linecap:round;stroke-linejoin:miter;stroke-miterlimit:4;stroke-opacity:1"
         d="M 48.84375 13.59375 C 48.590564 13.634165 48.359784 13.744388 48.15625 13.90625 C 48.152995 13.907518 48.131269 13.934238 48.125 13.9375 C 48.026049 13.993142 47.750793 14.15139 47.53125 14.28125 C 47.211914 14.470138 46.889205 14.629972 46.5625 14.875 C 46.508098 14.915802 46.457922 14.956881 46.40625 15 C 46.397638 15.007187 46.414787 15.024001 46.40625 15.03125 C 46.711198 16.005246 47.414128 16.800333 48.3125 17.3125 C 48.331713 17.295244 48.356532 17.295101 48.375 17.28125 C 48.419502 17.247873 48.749438 17.028927 49.0625 16.84375 C 49.375562 16.658573 49.607932 16.564264 49.96875 16.28125 C 50.030076 16.234764 50.10378 16.179082 50.15625 16.125 C 50.194751 16.083789 50.247954 16.013568 50.28125 15.96875 C 50.297456 15.946065 50.328884 15.898473 50.34375 15.875 C 50.358165 15.851279 50.393203 15.805675 50.40625 15.78125 C 50.481765 15.633372 50.539135 15.445867 50.5625 15.28125 C 50.571538 15.207849 50.564461 15.105887 50.5625 15.03125 C 50.559136 14.956542 50.546062 14.855863 50.53125 14.78125 C 50.525149 14.753306 50.507757 14.715296 50.5 14.6875 C 50.487072 14.641174 50.485779 14.575509 50.46875 14.53125 C 50.454493 14.496193 50.422968 14.439846 50.40625 14.40625 C 50.388936 14.373035 50.363376 14.312877 50.34375 14.28125 C 50.328611 14.257839 50.297614 14.209954 50.28125 14.1875 C 50.270076 14.172749 50.230442 14.139303 50.21875 14.125 C 50.164994 14.061662 50.09452 13.990953 50.03125 13.9375 C 49.988421 13.902644 49.921488 13.842481 49.875 13.8125 C 49.843628 13.793076 49.78282 13.767106 49.75 13.75 C 49.716837 13.733489 49.659461 13.701567 49.625 13.6875 C 49.572849 13.667339 49.492169 13.639323 49.4375 13.625 C 49.373275 13.609464 49.285718 13.600761 49.21875 13.59375 C 49.095089 13.582891 48.964315 13.574505 48.84375 13.59375 z "
         transform="matrix(-1,0,0,1,65.53915,0)"
         id="path17158" />
    </g>
    <use
       x="0"
       y="0"
       xlink:href="#g16241"
       id="use16273"
       transform="matrix(-1,0,0,1,129.5391,0)"
       width="128"
       height="64" />
  </g>
</svg>
