<?xml version="1.0" encoding="UTF-8" standalone="no"?>
<!-- Created with Inkscape (http://www.inkscape.org/) -->
<svg
   xmlns:dc="http://purl.org/dc/elements/1.1/"
   xmlns:cc="http://web.resource.org/cc/"
   xmlns:rdf="http://www.w3.org/1999/02/22-rdf-syntax-ns#"
   xmlns:svg="http://www.w3.org/2000/svg"
   xmlns="http://www.w3.org/2000/svg"
   xmlns:sodipodi="http://inkscape.sourceforge.net/DTD/sodipodi-0.dtd"
   xmlns:inkscape="http://www.inkscape.org/namespaces/inkscape"
   width="32"
   height="32"
   id="svg7842"
   sodipodi:version="0.32"
   inkscape:version="0.43"
   version="1.0"
   sodipodi:docbase="/home/nili/proj/grt/data"
   sodipodi:docname="machine.svg"
   inkscape:export-filename="/home/nili/proj/grt/data/machine.png"
   inkscape:export-xdpi="90"
   inkscape:export-ydpi="90">
  <defs
     id="defs7844" />
  <sodipodi:namedview
     id="base"
     pagecolor="#ffffff"
     bordercolor="#666666"
     borderopacity="1.0"
     inkscape:pageopacity="0.0"
     inkscape:pageshadow="2"
     inkscape:zoom="11.6875"
     inkscape:cx="16"
     inkscape:cy="15.704675"
     inkscape:document-units="px"
     inkscape:current-layer="layer1"
     gridspacingx="2px"
     gridspacingy="2px"
     inkscape:grid-bbox="true"
     inkscape:grid-points="true"
     showgrid="true"
     inkscape:window-width="761"
     inkscape:window-height="538"
     inkscape:window-x="0"
     inkscape:window-y="0" />
  <metadata
     id="metadata7847">
    <rdf:RDF>
      <cc:Work
         rdf:about="">
        <dc:format>image/svg+xml</dc:format>
        <dc:type
           rdf:resource="http://purl.org/dc/dcmitype/StillImage" />
      </cc:Work>
    </rdf:RDF>
  </metadata>
  <g
     inkscape:label="Layer 1"
     inkscape:groupmode="layer"
     id="layer1">
    <path
       sodipodi:nodetypes="cscccsccscc"
       id="path8726"
       d="M 32,12.671682 C 32,12.671682 24.108792,13.984254 23.307634,18.799778 C 21.972951,26.822166 24.522231,31.454546 24.522231,31.454546 L 17.330052,31.454546 L 9.9999968,31.454545 C 9.9999968,31.454545 12.701404,23.507757 11.214122,18.909867 C 9.7268411,14.311979 1.9999985,13.062996 1.9999985,13.062996 L 11.999997,9.981607 C 11.999997,9.981607 14.546629,1.4847761 16.864256,1.4545454 C 19.181883,1.4243148 21.270506,9.8606844 21.270506,9.8606844 L 32,12.671682 z "
       style="fill:#000000;fill-opacity:1;stroke:none;stroke-width:70.86614227;stroke-linejoin:round;stroke-miterlimit:4" />
    <path
       transform="matrix(1.947564,-0.252044,0.240678,2.039536,-6.882512,-4.561522)"
       style="fill:#8040ff;fill-opacity:1;stroke:none;stroke-width:70.86614227;stroke-linejoin:round;stroke-miterlimit:4"
       d="M 17.71123,9.9251337 C 17.71123,9.9251337 13.642008,10.065827 12.94944,12.341328 C 11.795661,16.132183 12.808468,18.528636 12.808468,18.528636 L 9.1711066,18.079134 L 5.4640163,17.621015 C 5.4640163,17.621015 7.3044884,13.952088 6.8267164,11.638665 C 6.3489444,9.3252431 2.5157229,8.2391512 2.5157229,8.2391512 L 7.7570044,7.3760355 C 7.7570044,7.3760355 9.5520277,3.4318021 10.725945,3.5620514 C 11.899862,3.6923007 12.452674,7.8970328 12.452674,7.8970328 L 17.71123,9.9251337 z "
       id="path7850"
       sodipodi:nodetypes="cscccsccscc" />
  </g>
</svg>
